<svg xmlns="http://www.w3.org/2000/svg" viewBox="0 0 820 220" fill="none">
  <!--
    REX-AI — Minimal tech wordmark for "Rex-AI"
    Style notes:
      - Stroke-only geometry (no fills) for a SpaceX/Tesla-esque precision feel
      - Rounded caps/joins for premium finish
      - Built on a 160px cap-height with consistent stroke
      - Uses currentColor so you can recolor via CSS or the 'color' attribute
  -->
  <g stroke="#FFFFFF" stroke-width="12" stroke-linecap="round" stroke-linejoin="round">
    <!-- R -->
    <g transform="translate(30,16)">
      <!-- Vertical stem -->
      <path d="M10,10 L10,128" />
      <!-- Upper bowl (angular, minimal) -->
      <path d="M10,10 L86,10 L104,28 L104,42 L86,60 L10,60" />
      <!-- Leg -->
      <path d="M48,86 L112,128" />
    </g>

    <!-- E -->
    <g transform="translate(180,16)">
      <!-- Stem -->
      <path d="M10,10 L10,128" />
      <!-- Top bar -->
      <path d="M10,10 L96,10" />
      <!-- Mid bar (shorter for hierarchy) -->
      <path d="M10,70 L80,70" />
      <!-- Bottom bar -->
      <path d="M10,128 L96,128" />
    </g>

    <!-- X (split like a trajectory; small gap in center) -->
    <g transform="translate(330,16)">
      <!-- Diagonal 1 (two segments with center gap) -->
      <path d="M6,10 L72,72" />
      <path d="M92,90 L148,128" />
      <!-- Diagonal 2 (two segments with center gap) -->
      <path d="M148,10 L92,58" />
      <path d="M72,74 L6,128" />
    </g>

    <!-- Hyphen -->
    <g transform="translate(520,16)">
      <path d="M0,70 L50,70" />
    </g>

    <!-- A (open apex + floating crossbar) -->
    <g transform="translate(590,16)">
      <!-- Left leg -->
      <path d="M10,128 L66,10" />
      <!-- Right leg -->
      <path d="M122,128 L66,10" />
      <!-- Crossbar (slim) -->
      <path d="M40,86 L92,86" />
    </g>

    <!-- I (with minimal end caps) -->
    <g transform="translate(750,16)">
      <!-- Top cap -->
      <path d="M-6,10 L42,10" />
      <!-- Stem -->
      <path d="M18,10 L18,128" />
      <!-- Bottom cap -->
      <path d="M-6,128 L42,128" />
    </g>
  </g>
  <text
    x="410"
    y="188"
    text-anchor="middle"
    font-family="Montserrat, 'Source Sans 3', sans-serif"
    font-size="48"
    letter-spacing="4"
    fill="#FFFFFF"
  >Interplanetary Recycling</text>
</svg>
